<svg xmlns="http://www.w3.org/2000/svg" xmlns:xlink="http://www.w3.org/1999/xlink" viewBox="0 0 500 500" width="500" height="500" preserveAspectRatio="xMidYMid meet" style="width: 100%; height: 100%; transform: translate3d(0px, 0px, 0px); content-visibility: visible;"><defs><clipPath id="__lottie_element_256"><rect width="500" height="500" x="0" y="0"></rect></clipPath><linearGradient id="__lottie_element_260" spreadMethod="pad" gradientUnits="userSpaceOnUse" x1="8.408967971801758" y1="-10.324531555175781" x2="-15.705692291259766" y2="24.576005935668945"><stop offset="0%" stop-color="rgb(164,185,255)"></stop><stop offset="50%" stop-color="rgb(177,173,255)"></stop><stop offset="100%" stop-color="rgb(190,161,255)"></stop></linearGradient><linearGradient id="__lottie_element_264" spreadMethod="pad" gradientUnits="userSpaceOnUse" x1="-9.256534576416016" y1="-19.097579956054688" x2="7.3646063804626465" y2="18.662792205810547"><stop offset="0%" stop-color="rgb(77,115,239)"></stop><stop offset="50%" stop-color="rgb(103,99,234)"></stop><stop offset="100%" stop-color="rgb(129,84,229)"></stop></linearGradient></defs><g clip-path="url(#__lottie_element_256)"><g transform="matrix(12.94810962677002,0,0,12.94810962677002,280.20599365234375,219.5290069580078)" opacity="1" style="display: block;"><g opacity="1" transform="matrix(1.0133099555969238,0,0,1,-0.7710000276565552,1.0180000066757202)"><path fill="url(#__lottie_element_260)" fill-opacity="1" d=" M-0.4907878637313843,-15.760299682617188 C9.632322311401367,-13.709324836730957 14.392078399658203,-11.981291770935059 15.481637954711914,-1.3773607015609741 C16.524723052978516,14.632829666137695 10.766255378723145,12.978375434875488 -0.19883786141872406,16.628114700317383 C-18.60455894470215,22.899290084838867 -19.117023468017578,6.926202774047852 -18.086441040039062,-0.00005357142799766734 C-16.709096908569336,-12.15894603729248 -11.594305992126465,-18.386560440063477 -0.4907878637313843,-15.760299682617188z"></path></g></g><g transform="matrix(9.735420227050781,0,0,9.735420227050781,251,239)" opacity="1" style="display: block;"><g opacity="1" transform="matrix(1.0022000074386597,0,0,1,0.34599998593330383,-0.21199999749660492)"><path fill="url(#__lottie_element_264)" fill-opacity="1" d=" M0,-20.53819465637207 C13.533883094787598,-23.35171127319336 26.067184448242188,-15.464881896972656 20.520999908447266,0 C17.28291893005371,9.424333572387695 17.871681213378906,20.735496520996094 -0.017153147608041763,21.934186935424805 C-18.04636573791504,23.140789031982422 -16.258886337280273,13.364480972290039 -21.144577026367188,-1.343448519706726 C-24.526470184326172,-11.505448341369629 -14.733092308044434,-17.510990142822266 0,-20.53819465637207z"></path></g></g><g transform="matrix(1.3136999607086182,0,0,1.3136999607086182,121.17054748535156,124.91349792480469)" opacity="1" style="display: block;"><g opacity="0.9542962987588198" transform="matrix(0.9488267302513123,0,0,0.9488267302513123,106.802001953125,111.6449966430664)"><path fill="rgb(255,255,255)" fill-opacity="1" d=" M72.64900207519531,-4.8429999351501465 C48.01499938964844,-4.8429999351501465 31.384000778198242,-10.277000427246094 20.83099937438965,-20.829999923706055 C10.277999877929688,-31.382999420166016 4.843999862670898,-48.01499938964844 4.843999862670898,-72.64900207519531 C4.843999862670898,-75.3239974975586 2.674999952316284,-77.49199676513672 0.0010000000474974513,-77.49199676513672 C-2.6740000247955322,-77.49199676513672 -4.8429999351501465,-75.3239974975586 -4.8429999351501465,-72.64900207519531 C-4.8429999351501465,-48.01499938964844 -10.276000022888184,-31.382999420166016 -20.829999923706055,-20.829999923706055 C-31.382999420166016,-10.277000427246094 -48.013999938964844,-4.8429999351501465 -72.64800262451172,-4.8429999351501465 C-75.322998046875,-4.8429999351501465 -77.49299621582031,-2.674999952316284 -77.49299621582031,0 C-77.49299621582031,2.674999952316284 -75.322998046875,4.843999862670898 -72.64800262451172,4.843999862670898 C-48.013999938964844,4.843999862670898 -31.382999420166016,10.277000427246094 -20.829999923706055,20.829999923706055 C-10.276000022888184,31.384000778198242 -4.8429999351501465,48.013999938964844 -4.8429999351501465,72.6500015258789 C-4.8429999351501465,75.3239974975586 -2.6740000247955322,77.49199676513672 0.0010000000474974513,77.49199676513672 C2.674999952316284,77.49199676513672 4.843999862670898,75.3239974975586 4.843999862670898,72.6500015258789 C4.843999862670898,48.013999938964844 10.277999877929688,31.384000778198242 20.83099937438965,20.829999923706055 C31.384000778198242,10.277000427246094 48.01499938964844,4.843999862670898 72.64900207519531,4.843999862670898 C75.32499694824219,4.843999862670898 77.49299621582031,2.674999952316284 77.49299621582031,0 C77.49299621582031,-2.674999952316284 75.32499694824219,-4.8429999351501465 72.64900207519531,-4.8429999351501465z"></path></g><g opacity="0.9278359829008399" transform="matrix(1.0413546562194824,0,0,1.0413546562194824,34.15299987792969,48.68299865722656)"><path fill="rgb(255,255,255)" fill-opacity="1" d=" M0,33.90299987792969 C2.674999952316284,33.90299987792969 4.8429999351501465,31.735000610351562 4.8429999351501465,29.059999465942383 C4.8429999351501465,19.56100082397461 6.947000026702881,13.82699966430664 10.38700008392334,10.38700008392334 C13.82699966430664,6.947999954223633 19.56100082397461,4.8429999351501465 29.059999465942383,4.8429999351501465 C31.735000610351562,4.8429999351501465 33.90299987792969,2.674999952316284 33.90299987792969,0 C33.90299987792969,-2.674999952316284 31.735000610351562,-4.8429999351501465 29.059999465942383,-4.8429999351501465 C19.56100082397461,-4.8429999351501465 13.82699966430664,-6.947000026702881 10.38700008392334,-10.38700008392334 C6.947000026702881,-13.826000213623047 4.8429999351501465,-19.56100082397461 4.8429999351501465,-29.05900001525879 C4.8429999351501465,-31.733999252319336 2.674999952316284,-33.90299987792969 0,-33.90299987792969 C-2.674999952316284,-33.90299987792969 -4.8429999351501465,-31.733999252319336 -4.8429999351501465,-29.05900001525879 C-4.8429999351501465,-19.56100082397461 -6.947000026702881,-13.826000213623047 -10.38700008392334,-10.38700008392334 C-13.826000213623047,-6.947000026702881 -19.56100082397461,-4.8429999351501465 -29.059999465942383,-4.8429999351501465 C-31.733999252319336,-4.8429999351501465 -33.90299987792969,-2.674999952316284 -33.90299987792969,0 C-33.90299987792969,2.674999952316284 -31.733999252319336,4.8429999351501465 -29.059999465942383,4.8429999351501465 C-19.56100082397461,4.8429999351501465 -13.826000213623047,6.947999954223633 -10.38700008392334,10.38700008392334 C-6.947000026702881,13.82699966430664 -4.8429999351501465,19.56100082397461 -4.8429999351501465,29.059999465942383 C-4.8429999351501465,31.735000610351562 -2.674999952316284,33.90299987792969 0,33.90299987792969z"></path></g><g opacity="0.8701948864652235" transform="matrix(1.0319595336914062,0,0,1.0319595336914062,161.29299926757812,24.465999603271484)"><path fill="rgb(255,255,255)" fill-opacity="1" d=" M-19.37299919128418,4.843999862670898 C-13.23799991607666,4.843999862670898 -9.925999641418457,6.208000183105469 -8.065999984741211,8.067000389099121 C-6.208000183105469,9.925999641418457 -4.8429999351501465,13.23799991607666 -4.8429999351501465,19.374000549316406 C-4.8429999351501465,22.048999786376953 -2.674999952316284,24.216999053955078 -0.0010000000474974513,24.216999053955078 C2.674999952316284,24.216999053955078 4.8429999351501465,22.048999786376953 4.8429999351501465,19.374000549316406 C4.8429999351501465,13.23799991607666 6.206999778747559,9.925999641418457 8.0649995803833,8.067000389099121 C9.925000190734863,6.208000183105469 13.237000465393066,4.843999862670898 19.37299919128418,4.843999862670898 C22.047000885009766,4.843999862670898 24.215999603271484,2.6760001182556152 24.215999603271484,0.0010000000474974513 C24.215999603271484,-2.6740000247955322 22.047000885009766,-4.843999862670898 19.37299919128418,-4.843999862670898 C13.237000465393066,-4.843999862670898 9.925000190734863,-6.208000183105469 8.0649995803833,-8.065999984741211 C6.206999778747559,-9.925000190734863 4.8429999351501465,-13.23799991607666 4.8429999351501465,-19.37299919128418 C4.8429999351501465,-22.04800033569336 2.674999952316284,-24.216999053955078 -0.0010000000474974513,-24.216999053955078 C-2.674999952316284,-24.216999053955078 -4.8429999351501465,-22.04800033569336 -4.8429999351501465,-19.37299919128418 C-4.8429999351501465,-13.23799991607666 -6.208000183105469,-9.925000190734863 -8.065999984741211,-8.065999984741211 C-9.925999641418457,-6.208000183105469 -13.23799991607666,-4.843999862670898 -19.37299919128418,-4.843999862670898 C-22.048999786376953,-4.843999862670898 -24.216999053955078,-2.6740000247955322 -24.216999053955078,0.0010000000474974513 C-24.216999053955078,2.6760001182556152 -22.048999786376953,4.843999862670898 -19.37299919128418,4.843999862670898z"></path></g></g></g></svg>